<svg width="250" height="250" viewBox="0 0 250 250" fill="none" xmlns="http://www.w3.org/2000/svg">
<rect width="250" height="250" fill="#464646"/>
<rect width="250" height="250" fill="#EFBA45"/>
<path d="M84.1357 88.7969H69.1504L69.0967 140.628C69.0609 143.17 68.7923 145.408 68.291 147.342C67.7897 149.275 67.0378 150.887 66.0352 152.176C65.1042 153.429 63.9225 154.378 62.4902 155.022C61.0938 155.631 59.4824 155.936 57.6562 155.936C55.9733 155.936 54.4873 155.649 53.1982 155.076C51.9092 154.467 50.8171 153.572 49.9219 152.391C48.9551 151.102 48.221 149.472 47.7197 147.503C47.2542 145.534 47.0036 143.242 46.9678 140.628L46.9141 88.7969H31.8213L31.7676 140.628C31.7676 144.996 32.3763 148.899 33.5938 152.337C34.847 155.739 36.6016 158.603 38.8574 160.931C41.1133 163.258 43.8167 165.031 46.9678 166.248C50.1546 167.465 53.7174 168.074 57.6562 168.074C61.8457 168.074 65.5697 167.465 68.8281 166.248C72.1224 165.031 74.9154 163.24 77.207 160.877C79.4629 158.549 81.1816 155.685 82.3633 152.283C83.5807 148.882 84.1895 144.996 84.1895 140.628L84.1357 88.7969ZM97.9932 167H126.514C130.811 167 134.678 166.517 138.115 165.55C141.553 164.583 144.471 163.133 146.87 161.199C149.269 159.266 151.113 156.867 152.402 154.002C153.691 151.137 154.336 147.825 154.336 144.065C154.336 142.096 154.067 140.198 153.53 138.372C153.029 136.51 152.241 134.791 151.167 133.216C150.129 131.748 148.84 130.459 147.3 129.349C145.796 128.239 143.755 127.326 141.177 126.609V126.556C142.502 126.054 143.701 125.446 144.775 124.729C145.885 124.013 146.87 123.226 147.729 122.366C149.305 120.791 150.487 118.965 151.274 116.888C152.098 114.775 152.528 112.537 152.563 110.174C152.563 106.521 151.883 103.353 150.522 100.667C149.198 97.9814 147.3 95.7614 144.829 94.0068C142.358 92.2523 139.368 90.9453 135.859 90.0859C132.386 89.2266 128.519 88.7969 124.258 88.7969H97.9932V167ZM113.14 132.518H127.212C129.325 132.553 131.151 132.84 132.69 133.377C134.23 133.914 135.483 134.684 136.45 135.687C137.417 136.653 138.115 137.835 138.545 139.231C139.01 140.628 139.243 142.203 139.243 143.958C139.243 145.641 138.939 147.163 138.33 148.523C137.757 149.884 136.898 151.048 135.752 152.015C134.714 152.874 133.407 153.554 131.831 154.056C130.291 154.557 128.537 154.808 126.567 154.808H113.14V132.518ZM113.14 121.614V101.097H124.312C126.746 101.132 128.859 101.401 130.649 101.902C132.476 102.404 133.926 103.209 135 104.319C135.824 105.107 136.432 106.092 136.826 107.273C137.256 108.455 137.471 109.834 137.471 111.409C137.471 112.913 137.22 114.256 136.719 115.438C136.253 116.619 135.573 117.622 134.678 118.445C133.604 119.484 132.189 120.271 130.435 120.809C128.68 121.31 126.657 121.578 124.365 121.614H113.14ZM190.698 137.781L205.415 167H221.582V166.302L204.771 134.021C206.919 133.055 208.853 131.909 210.571 130.584C212.326 129.259 213.83 127.701 215.083 125.911C216.3 124.157 217.231 122.169 217.876 119.949C218.556 117.693 218.896 115.169 218.896 112.376C218.896 108.509 218.216 105.107 216.855 102.171C215.531 99.2347 213.633 96.7819 211.162 94.8125C208.656 92.8431 205.648 91.3571 202.139 90.3545C198.63 89.3161 194.709 88.7969 190.376 88.7969H164.165V167H179.258V137.781H190.698ZM179.258 125.535V101.043H190.376C192.453 101.043 194.297 101.294 195.908 101.795C197.52 102.296 198.88 103.012 199.99 103.943C201.243 104.982 202.174 106.307 202.783 107.918C203.428 109.493 203.75 111.32 203.75 113.396C203.75 115.115 203.499 116.673 202.998 118.069C202.533 119.466 201.834 120.665 200.903 121.668C199.793 122.921 198.343 123.888 196.553 124.568C194.798 125.213 192.757 125.535 190.43 125.535H179.258Z" fill="white"/>
</svg>
